<svg width="40" height="38" viewBox="0 0 40 38" fill="none" xmlns="http://www.w3.org/2000/svg">
<path d="M40 23.4847V1.23975C40 0.592559 39.4753 0.0678711 38.8281 0.0678711H1.17188C0.524687 0.0678711 0 0.592559 0 1.23975V23.4847H40ZM19.6094 18.9615C19.6094 19.6087 19.0847 20.1334 18.4375 20.1334H10.3912C9.74406 20.1334 9.21938 19.6087 9.21938 18.9615V13.3077C9.21938 12.6605 9.74406 12.1358 10.3912 12.1358H18.4375C19.0847 12.1358 19.6094 12.6605 19.6094 13.3077V18.9615ZM30.7508 20.1334H23.125C22.4778 20.1334 21.9531 19.6087 21.9531 18.9615C21.9531 18.3144 22.4778 17.7897 23.125 17.7897H30.7508C31.398 17.7897 31.9227 18.3144 31.9227 18.9615C31.9227 19.6087 31.398 20.1334 30.7508 20.1334ZM30.7508 14.4796H23.125C22.4778 14.4796 21.9531 13.9549 21.9531 13.3077C21.9531 12.6605 22.4778 12.1358 23.125 12.1358H30.7508C31.398 12.1358 31.9227 12.6605 31.9227 13.3077C31.9227 13.9549 31.398 14.4796 30.7508 14.4796ZM30.7508 8.10662H10.3912C9.74406 8.10662 9.21938 7.58193 9.21938 6.93475C9.21938 6.28756 9.74406 5.76287 10.3912 5.76287H30.7508C31.398 5.76287 31.9227 6.28756 31.9227 6.93475C31.9227 7.58193 31.398 8.10662 30.7508 8.10662Z" fill="white"/>
<path d="M15.4382 33.5325V35.5886H15.1006C14.4534 35.5886 13.9287 36.1133 13.9287 36.7604C13.9287 37.4076 14.4534 37.9323 15.1006 37.9323H24.8992C25.5464 37.9323 26.0711 37.4076 26.0711 36.7604C26.0711 36.1133 25.5464 35.5886 24.8992 35.5886H24.5616V33.5325H15.4382Z" fill="white"/>
<path d="M38.8281 31.1456C39.4753 31.1456 40 30.6209 40 29.9737V25.8283H0V29.9737C0 30.6209 0.524687 31.1456 1.17188 31.1456H38.8281Z" fill="white"/>
<path d="M11.563 14.4796H17.2655V17.7897H11.563V14.4796Z" fill="white"/>
</svg>
