<svg width="34" height="29" viewBox="0 0 34 29" fill="none" xmlns="http://www.w3.org/2000/svg">
<path d="M20.4793 0.0831299L9.67055 7.80368L5.5707 25.9599C5.33109 26.0357 5.07891 26.0756 4.82031 26.0756C4.15891 26.0756 3.53719 25.818 3.06937 25.3503C2.60172 24.8827 2.34414 24.2609 2.34414 23.5995C2.34414 22.9381 2.60172 22.3163 3.06945 21.8485L4.86539 20.0523C6.74477 18.1729 6.74477 15.1148 4.86539 13.2353H4.86508C2.10781 10.4781 2.10781 5.99165 4.86508 3.23438L3.2075 1.5768C-0.463828 5.24813 -0.463828 11.2217 3.2075 14.8931H3.20781C4.1732 15.8585 4.1732 17.4294 3.20773 18.3949L1.41188 20.1909C0.501406 21.1014 0 22.3119 0 23.5995C0 24.887 0.501406 26.0975 1.41188 27.008C2.32227 27.9184 3.53281 28.4199 4.82039 28.4199C5.70758 28.4199 6.83969 28.4631 7.58078 28.0172L25.7755 23.9087L33.4961 13.0999L20.4793 0.0831299ZM22.5951 14.2993C21.9816 14.9127 21.1129 15.1145 20.3309 14.9059L8.22883 27.0079L6.57125 25.3504L18.6733 13.2483C18.4645 12.4663 18.6663 11.5976 19.2798 10.9841C20.1952 10.0688 21.6795 10.0688 22.5951 10.9841C23.5105 11.8996 23.5105 13.3839 22.5951 14.2993Z" fill="white"/>
</svg>
